<?xml version="1.0" encoding="utf-8"?>
<!-- Generator: Adobe Illustrator 26.2.1, SVG Export Plug-In . SVG Version: 6.00 Build 0)  -->
<svg version="1.1" id="Layer_1" xmlns="http://www.w3.org/2000/svg" xmlns:xlink="http://www.w3.org/1999/xlink" x="0px" y="0px"
	 viewBox="0 0 230.33 84.2" enable-background="new 0 0 230.33 84.2" xml:space="preserve">
<g id="hexagon-flat_30_" transform="translate(173.000000, 138.000000)">
	<polygon id="Polygon-48_31_" fill="#3B72B9" points="-136.562,-138 -100.038,-116.971 -100.038,-74.829 -136.562,-53.8 
		-173,-74.829 -173,-116.971 	"/>
</g>
<polygon opacity="0.25" fill="#020202" points="36.438,28.776 36.438,13.694 0,34.392 0,63.171 24.816,77.493 60.41,57.086 
	61.385,28.776 "/>
<g id="hexagon-flat_29_" transform="translate(173.000000, 138.000000)">
	
		<polygon id="Polygon-48_30_" fill="none" stroke="#3D85C6" stroke-width="3.4055" stroke-linecap="round" stroke-linejoin="round" stroke-miterlimit="10" points="
		-136.562,-122.59 -136.562,-109.224 -113.319,-109.224 -113.319,-82.491 -136.562,-69.125 -159.719,-82.491 -159.719,-109.224 	"/>
</g>
<g id="hexagon-flat_28_" transform="translate(173.000000, 138.000000)">
	
		<polyline id="Polygon-48_29_" fill="none" stroke="#FFFFFF" stroke-width="3.4055" stroke-linecap="round" stroke-linejoin="round" stroke-miterlimit="10" points="
		-159.719,-82.491 -159.719,-109.224 -136.562,-93.474 -113.319,-109.224 -113.319,-82.491 	"/>
</g>
<text transform="matrix(1 0 0 1 87.6922 37.2719)"><tspan x="0" y="0" fill="#2D4266" font-family="'SofiaPro-Bold'" font-size="22.1355px">Fundacja</tspan><tspan x="0" y="26.562" fill="#2D4266" font-family="'SofiaPro-Bold'" font-size="22.1355px">Moje Państwo</tspan></text>
</svg>
